<svg xmlns="http://www.w3.org/2000/svg" viewBox="0 0 223 89" width="223" height="89" role="img" aria-labelledby="nfxTitle"><title id="nfxTitle">NetFrux Technologies</title><style>.a{transform-box:fill-box;transform-origin:50% 50%}.rl{transform-origin:0 50%}.swp{stroke-dasharray:60.45;stroke-dashoffset:0}@keyframes nfxRise{from{opacity:0;transform:translateY(7px)}to{opacity:1;transform:none}}@keyframes nfxDraw{from{stroke-dashoffset:60.45}to{stroke-dashoffset:0}}@keyframes nfxRule{from{opacity:.3;transform:scaleX(0)}to{opacity:1;transform:scaleX(1)}}.g0{animation:nfxRise 500ms cubic-bezier(.2,.75,.25,1) 0ms both}.g1{animation:nfxRise 500ms cubic-bezier(.2,.75,.25,1) 65ms both}.g2{animation:nfxRise 500ms cubic-bezier(.2,.75,.25,1) 130ms both}.g3{animation:nfxRise 500ms cubic-bezier(.2,.75,.25,1) 195ms both}.g4{animation:nfxRise 500ms cubic-bezier(.2,.75,.25,1) 260ms both}.g5{animation:nfxRise 500ms cubic-bezier(.2,.75,.25,1) 325ms both}.g6{animation:nfxRise 500ms cubic-bezier(.2,.75,.25,1) 390ms both}.swp{animation:nfxDraw 820ms cubic-bezier(.42,.02,.18,1) 700ms both}.rl{animation:nfxRule 430ms cubic-bezier(.2,.75,.25,1) 1290ms both}@keyframes nfxT0{from{opacity:0;transform:translateX(-13.71px)}to{opacity:1;transform:none}}.t0{animation:nfxT0 520ms cubic-bezier(.2,.75,.25,1) 1430ms both}@keyframes nfxT1{from{opacity:0;transform:translateX(-11.31px)}to{opacity:1;transform:none}}.t1{animation:nfxT1 520ms cubic-bezier(.2,.75,.25,1) 1470ms both}@keyframes nfxT2{from{opacity:0;transform:translateX(-8.78px)}to{opacity:1;transform:none}}.t2{animation:nfxT2 520ms cubic-bezier(.2,.75,.25,1) 1510ms both}@keyframes nfxT3{from{opacity:0;transform:translateX(-6.17px)}to{opacity:1;transform:none}}.t3{animation:nfxT3 520ms cubic-bezier(.2,.75,.25,1) 1550ms both}@keyframes nfxT4{from{opacity:0;transform:translateX(-3.58px)}to{opacity:1;transform:none}}.t4{animation:nfxT4 520ms cubic-bezier(.2,.75,.25,1) 1590ms both}@keyframes nfxT5{from{opacity:0;transform:translateX(-0.84px)}to{opacity:1;transform:none}}.t5{animation:nfxT5 520ms cubic-bezier(.2,.75,.25,1) 1630ms both}@keyframes nfxT6{from{opacity:0;transform:translateX(1.82px)}to{opacity:1;transform:none}}.t6{animation:nfxT6 520ms cubic-bezier(.2,.75,.25,1) 1670ms both}@keyframes nfxT7{from{opacity:0;transform:translateX(4.36px)}to{opacity:1;transform:none}}.t7{animation:nfxT7 520ms cubic-bezier(.2,.75,.25,1) 1710ms both}@keyframes nfxT8{from{opacity:0;transform:translateX(7.08px)}to{opacity:1;transform:none}}.t8{animation:nfxT8 520ms cubic-bezier(.2,.75,.25,1) 1750ms both}@keyframes nfxT9{from{opacity:0;transform:translateX(9.29px)}to{opacity:1;transform:none}}.t9{animation:nfxT9 520ms cubic-bezier(.2,.75,.25,1) 1790ms both}@keyframes nfxT10{from{opacity:0;transform:translateX(11.31px)}to{opacity:1;transform:none}}.t10{animation:nfxT10 520ms cubic-bezier(.2,.75,.25,1) 1830ms both}@keyframes nfxT11{from{opacity:0;transform:translateX(13.71px)}to{opacity:1;transform:none}}.t11{animation:nfxT11 520ms cubic-bezier(.2,.75,.25,1) 1870ms both}@media (prefers-reduced-motion:reduce){.a,.swp{animation:none!important;opacity:1;transform:none;stroke-dashoffset:0}}</style><defs><mask id="nfxSw" maskUnits="userSpaceOnUse" x="-20" y="-30" width="263" height="149"><path class="swp" d="M202.00 28.00L200.00 23.93L198.00 22.50L196.00 20.71L194.00 19.21L192.00 18.07L190.00 17.64L188.00 17.21L186.00 16.57L184.00 15.50L182.00 13.93L180.00 12.43L178.00 11.07L176.00 9.79L174.00 8.64L172.00 7.50L170.00 6.57L168.00 5.57L166.00 4.64L164.00 3.79L162.00 3.00L160.00 2.21L158.00 1.57L156.00 1.00L154.00 0.50L152.00 0.21L150.50 -0.55" fill="none" stroke="#fff" stroke-width="22" stroke-linecap="butt" stroke-linejoin="round" stroke-dasharray="60.45" stroke-dashoffset="0"/></mask></defs><path class="a g0" d="M3.062 59.296C2.024 59.038 1.589 58.823 1.366 58.455C1.132 58.072 1.126 57.560 1.131 38.250C1.135 22.158 1.167 18.351 1.301 17.975C1.548 17.285 2.433 16.293 2.974 16.102C3.617 15.874 10.708 15.868 11.453 16.094C12.175 16.314 13.493 17.374 13.930 18.088C14.133 18.418 14.423 18.841 14.576 19.028C14.729 19.215 14.922 19.581 15.005 19.841C15.088 20.100 15.281 20.481 15.433 20.688C15.585 20.894 15.888 21.414 16.105 21.844C16.322 22.273 16.678 22.977 16.895 23.406C17.112 23.836 17.417 24.356 17.573 24.562C17.728 24.769 17.895 25.096 17.944 25.290C17.992 25.484 18.212 25.906 18.434 26.228C18.655 26.549 18.905 27.025 18.991 27.284C19.077 27.544 19.279 27.913 19.440 28.105C19.601 28.297 19.847 28.754 19.986 29.120C20.125 29.486 20.350 29.904 20.485 30.049C20.620 30.194 20.839 30.601 20.972 30.954C21.106 31.307 21.356 31.785 21.529 32.016C21.702 32.248 21.914 32.663 22.000 32.938C22.086 33.212 22.298 33.627 22.471 33.859C22.644 34.090 22.894 34.568 23.028 34.921C23.161 35.274 23.380 35.680 23.514 35.825C23.648 35.969 23.862 36.372 23.989 36.720C24.116 37.068 24.361 37.541 24.532 37.770C24.704 38.000 24.914 38.413 25.000 38.688C25.086 38.962 25.293 39.372 25.462 39.597C25.630 39.822 25.856 40.272 25.965 40.597C26.074 40.922 26.320 41.413 26.511 41.688C26.702 41.962 26.923 42.436 27.002 42.739C27.081 43.042 27.303 43.576 27.497 43.926C27.690 44.276 27.915 44.775 27.998 45.036C28.188 45.638 28.659 45.982 28.955 45.735C29.132 45.588 29.149 45.359 29.080 44.002C29.037 43.141 28.997 36.725 28.992 29.744C28.984 19.756 29.016 16.977 29.140 16.703C29.227 16.512 29.453 16.276 29.642 16.179C30.791 15.585 35.393 15.621 36.250 16.231C36.980 16.751 36.943 15.495 36.875 37.312L36.812 57.312L36.250 58.020C35.383 59.111 35.179 59.169 32.000 59.225C29.280 59.274 27.769 59.145 27.125 58.810C26.632 58.554 25.261 57.259 25.050 56.851C24.945 56.647 24.665 56.228 24.429 55.918C24.193 55.609 24.000 55.254 24.000 55.129C24.000 55.005 23.805 54.620 23.567 54.274C23.330 53.928 23.097 53.496 23.052 53.314C23.006 53.131 22.781 52.709 22.552 52.376C22.322 52.043 22.097 51.621 22.052 51.439C22.006 51.256 21.788 50.844 21.566 50.522C21.345 50.201 21.090 49.712 21.000 49.438C20.910 49.163 20.655 48.674 20.434 48.353C20.212 48.031 19.994 47.619 19.948 47.436C19.903 47.254 19.678 46.832 19.448 46.499C19.219 46.166 18.994 45.744 18.948 45.561C18.903 45.379 18.670 44.947 18.433 44.601C18.195 44.255 18.000 43.900 18.000 43.813C18.000 43.725 17.805 43.370 17.567 43.024C17.330 42.678 17.097 42.246 17.052 42.064C17.006 41.881 16.788 41.469 16.566 41.147C16.345 40.826 16.092 40.337 16.004 40.062C15.916 39.788 15.702 39.373 15.529 39.141C15.356 38.910 15.106 38.436 14.974 38.087C14.842 37.739 14.601 37.297 14.440 37.105C14.279 36.913 14.078 36.544 13.995 36.284C13.912 36.025 13.702 35.623 13.529 35.391C13.356 35.160 13.108 34.689 12.977 34.345C12.846 34.001 12.607 33.543 12.444 33.328C12.282 33.113 12.091 32.723 12.020 32.461C11.949 32.198 11.722 31.720 11.517 31.398C11.311 31.076 11.104 30.644 11.058 30.438C10.986 30.123 10.485 28.976 9.834 27.637C9.596 27.149 9.271 27.016 9.044 27.312C8.882 27.524 8.868 27.801 8.957 29.125C9.015 29.984 9.062 36.911 9.062 44.518C9.062 57.803 9.053 58.359 8.831 58.604C8.362 59.123 7.577 59.286 5.375 59.323C4.241 59.343 3.200 59.330 3.062 59.296Z" fill="#0D0E3C"/><path class="a g1" d="M57.562 59.914C55.011 59.749 51.142 58.487 49.800 57.382C49.586 57.206 49.246 56.973 49.043 56.864C48.407 56.521 46.198 53.811 46.002 53.134C45.950 52.957 45.704 52.428 45.454 51.958C45.204 51.489 45.000 50.993 45.000 50.858C45.000 50.722 44.831 49.962 44.625 49.168C44.114 47.198 43.918 44.319 44.107 41.541C44.216 39.934 44.339 39.168 44.739 37.589C45.012 36.512 45.375 35.390 45.545 35.097C45.715 34.803 45.917 34.326 45.993 34.037C46.069 33.748 46.263 33.354 46.423 33.162C46.584 32.970 46.816 32.616 46.939 32.375C47.410 31.456 49.250 29.542 50.194 28.991C50.497 28.814 50.844 28.581 50.966 28.474C51.402 28.091 53.949 27.014 54.750 26.875C55.197 26.797 55.872 26.639 56.250 26.523C57.349 26.188 61.196 26.224 62.688 26.584C63.306 26.733 64.196 26.943 64.664 27.050C65.132 27.156 65.667 27.348 65.851 27.474C66.036 27.601 66.488 27.826 66.856 27.975C67.223 28.124 67.716 28.402 67.952 28.592C69.498 29.841 70.325 30.686 70.845 31.547C70.965 31.745 71.238 32.169 71.452 32.488C71.666 32.808 71.938 33.404 72.057 33.812C72.176 34.221 72.382 34.769 72.515 35.030C72.981 35.943 73.239 38.038 73.258 41.062C73.273 43.346 73.149 44.005 72.597 44.592C71.987 45.242 71.777 45.255 62.220 45.247C56.377 45.243 53.295 45.284 53.136 45.369C52.697 45.604 52.585 46.255 52.796 47.341C52.900 47.875 53.022 48.550 53.066 48.840C53.110 49.130 53.246 49.496 53.368 49.653C53.491 49.809 53.706 50.163 53.848 50.438C54.252 51.224 55.685 52.475 56.625 52.862C56.797 52.933 57.556 53.140 58.312 53.322C59.554 53.621 59.845 53.646 61.312 53.585C63.207 53.506 66.797 52.907 67.657 52.527C68.455 52.173 70.279 51.625 70.656 51.625C71.106 51.625 71.779 52.131 71.904 52.562C71.963 52.769 71.975 53.794 71.930 54.840L71.849 56.742L71.417 57.296C71.180 57.601 70.806 57.918 70.587 58.000C70.367 58.082 69.822 58.309 69.375 58.504C68.928 58.699 68.338 58.896 68.062 58.943C67.787 58.990 66.830 59.189 65.935 59.386C63.507 59.920 60.541 60.107 57.562 59.914ZM64.875 39.625C65.062 39.438 65.125 39.209 65.124 38.719C65.123 37.723 64.894 36.495 64.606 35.938C64.465 35.663 64.236 35.212 64.098 34.938C63.241 33.229 60.563 31.955 58.438 32.244C58.094 32.291 57.369 32.494 56.827 32.696C56.056 32.983 55.665 33.226 55.028 33.812C54.581 34.225 54.124 34.759 54.012 35.000C53.900 35.241 53.656 35.694 53.469 36.006C53.135 36.567 52.750 38.154 52.750 38.969C52.750 39.208 52.853 39.478 53.000 39.625C53.243 39.868 53.417 39.875 58.938 39.875C64.458 39.875 64.632 39.868 64.875 39.625Z" fill="#0D0E3C"/><path class="a g2" d="M88.383 59.746C87.352 59.531 85.493 58.853 85.152 58.569C84.965 58.413 84.662 58.208 84.478 58.112C84.114 57.922 82.875 56.565 82.875 56.357C82.875 56.286 82.709 55.994 82.506 55.708C82.303 55.422 82.056 54.850 81.957 54.438C81.858 54.025 81.647 53.237 81.487 52.688C81.198 51.690 81.197 51.669 81.167 43.000L81.136 34.312L80.849 34.078C80.596 33.871 80.404 33.852 79.197 33.908C78.443 33.943 77.675 33.917 77.481 33.850C77.248 33.768 76.993 33.490 76.721 33.020C76.323 32.331 76.311 32.269 76.270 30.625L76.228 28.938L76.648 28.127C77.209 27.044 77.374 26.970 79.052 27.047C80.513 27.114 81.108 26.966 81.141 26.528C81.150 26.409 81.149 24.956 81.138 23.299L81.119 20.286L81.528 19.882C82.275 19.146 82.500 19.086 84.750 19.028C85.884 18.998 87.234 19.033 87.750 19.106C88.636 19.230 88.718 19.269 89.237 19.819L89.787 20.400L89.718 23.394L89.648 26.388L89.938 26.725L90.227 27.061L93.091 27.020C96.606 26.969 96.711 26.996 97.131 28.082C97.373 28.707 97.413 29.042 97.409 30.396C97.404 32.097 97.187 33.127 96.730 33.617C96.501 33.864 96.360 33.875 93.503 33.875C90.469 33.875 89.972 33.937 89.786 34.338C89.612 34.711 89.804 50.097 89.990 50.688C90.176 51.279 90.849 52.019 91.609 52.468C92.060 52.735 92.319 52.793 93.109 52.802C93.909 52.811 94.237 52.745 95.149 52.391C96.396 51.907 96.768 51.930 97.067 52.508C97.623 53.584 97.582 56.619 96.993 57.989C96.673 58.733 96.488 58.854 94.816 59.411C93.744 59.768 93.568 59.789 91.312 59.825C90.006 59.845 88.688 59.810 88.383 59.746Z" fill="#0D0E3C"/><path class="a g3" d="M105.959 59.875C104.782 59.762 104.338 59.556 103.775 58.863L103.488 58.509L103.497 38.564C103.506 18.887 103.509 18.610 103.758 17.946C104.039 17.194 104.095 17.134 104.955 16.653L105.562 16.313L115.985 16.279L126.407 16.244L127.066 16.903C127.660 17.498 127.733 17.632 127.813 18.271C127.862 18.661 127.881 19.683 127.857 20.542C127.814 22.043 127.798 22.124 127.438 22.634C126.665 23.726 127.266 23.647 119.800 23.633C113.705 23.621 113.154 23.638 112.761 23.841L112.335 24.062L112.338 29.372L112.341 34.682L112.663 34.922C112.972 35.153 113.239 35.162 119.170 35.136C126.025 35.105 125.724 35.073 126.481 35.935L126.875 36.384L126.875 38.636C126.875 41.144 126.820 41.368 126.065 41.944L125.630 42.276L119.512 42.257C113.165 42.238 112.735 42.269 112.430 42.762C112.375 42.851 112.345 46.368 112.363 50.578C112.392 57.571 112.377 58.271 112.182 58.681C111.928 59.217 111.490 59.552 110.811 59.730C110.105 59.916 107.267 60.001 105.959 59.875Z" fill="#9F1A1C"/><path class="a g4" d="M136.875 59.885C135.734 59.794 135.263 59.608 134.715 59.032L134.368 58.666L134.368 43.626L134.368 28.586L134.653 28.281C134.809 28.113 135.219 27.831 135.562 27.655C136.151 27.354 136.298 27.335 138.062 27.334C140.135 27.332 140.500 27.433 141.370 28.245L141.786 28.634L141.690 29.536C141.533 31.026 141.544 31.270 141.775 31.418C142.132 31.645 142.652 31.368 142.979 30.776C143.359 30.087 145.156 28.303 145.803 27.973C146.079 27.832 146.455 27.606 146.638 27.470C147.368 26.931 149.648 26.713 151.500 27.005C152.502 27.163 152.839 27.400 153.290 28.263L153.642 28.937L153.602 31.500C153.565 33.895 153.544 34.098 153.274 34.603C152.832 35.432 152.449 35.538 151.267 35.158C150.115 34.788 148.481 34.732 147.672 35.035C146.614 35.431 144.973 36.964 143.688 38.757C142.796 40.001 142.868 39.043 142.884 49.415C142.901 60.004 143.007 58.992 141.824 59.553C141.282 59.810 140.947 59.863 139.562 59.912C138.669 59.944 137.459 59.932 136.875 59.885Z" fill="#9F1A1C"/><path class="a g5" d="M168.188 60.421C164.785 59.892 163.717 59.429 162.016 57.745C160.751 56.493 160.241 55.788 159.936 54.872C159.815 54.505 159.611 54.028 159.484 53.813C159.178 53.295 159.026 52.466 158.807 50.125C158.540 47.270 158.540 28.901 158.807 28.385C159.230 27.567 161.028 27.191 163.812 27.337C164.935 27.396 165.325 27.471 165.938 27.746C166.350 27.931 166.756 28.167 166.840 28.269C166.957 28.411 167.001 30.842 167.028 38.634L167.062 48.812L167.556 49.875C168.222 51.307 168.393 51.536 169.329 52.244C170.013 52.762 170.270 52.877 171.026 53.004C171.679 53.115 172.130 53.120 172.710 53.024C173.508 52.891 173.621 52.846 174.882 52.144C175.603 51.743 177.802 49.666 178.412 48.810L178.762 48.320L178.743 38.470C178.722 27.256 178.624 28.210 179.854 27.661C180.518 27.365 180.700 27.345 182.753 27.329C184.909 27.313 184.958 27.318 185.864 27.683C186.626 27.990 186.814 28.123 186.952 28.453C187.087 28.777 187.119 31.608 187.121 43.645C187.124 60.447 187.216 59.033 186.072 59.617C185.487 59.916 185.356 59.931 183.447 59.921C181.139 59.910 180.556 59.760 180.129 59.069C179.844 58.608 179.800 58.145 179.937 57.047C180.021 56.369 180.003 56.253 179.775 56.025C179.400 55.650 179.140 55.777 177.974 56.898C177.404 57.446 176.730 58.002 176.477 58.133C176.224 58.264 175.981 58.430 175.936 58.502C175.744 58.814 173.211 59.893 172.102 60.136C170.955 60.387 168.921 60.535 168.188 60.421Z" fill="#9F1A1C"/><path class="a g6" d="M194.293 59.882C193.593 59.816 193.302 59.724 192.951 59.457C192.276 58.941 192.183 58.692 192.490 58.212C192.631 57.992 192.863 57.559 193.007 57.250C193.150 56.941 193.372 56.575 193.500 56.438C193.628 56.300 193.849 55.918 193.990 55.588C194.131 55.258 194.380 54.808 194.543 54.588C194.707 54.368 194.903 54.001 194.979 53.772C195.056 53.544 195.281 53.150 195.479 52.897C195.677 52.644 195.910 52.222 195.996 51.958C196.081 51.694 196.304 51.301 196.491 51.083C196.677 50.865 196.905 50.491 196.997 50.250C197.090 50.009 197.297 49.632 197.459 49.412C197.621 49.192 197.869 48.742 198.010 48.412C198.151 48.082 198.372 47.700 198.500 47.562C198.628 47.425 198.853 47.031 199.000 46.688C199.147 46.344 199.372 45.950 199.500 45.812C199.628 45.675 199.851 45.288 199.994 44.953C200.138 44.617 200.394 44.177 200.565 43.974C200.980 43.481 200.974 42.887 200.550 42.383C200.371 42.170 200.113 41.702 199.977 41.342C199.841 40.982 199.624 40.573 199.494 40.434C199.365 40.294 199.171 39.933 199.064 39.630C198.957 39.327 198.739 38.907 198.578 38.696C198.417 38.485 198.138 38.021 197.958 37.665C197.777 37.309 197.571 36.982 197.500 36.937C197.429 36.893 197.223 36.566 197.043 36.210C196.864 35.854 196.579 35.394 196.410 35.188C196.241 34.981 195.925 34.535 195.708 34.196C195.490 33.856 195.116 33.286 194.875 32.928C194.634 32.570 194.250 31.990 194.021 31.639C193.791 31.287 193.557 31.000 193.499 31.000C193.442 31.000 193.268 30.789 193.113 30.531C192.957 30.273 192.657 29.858 192.446 29.608C192.235 29.357 191.781 28.804 191.438 28.378C191.094 27.952 190.616 27.392 190.375 27.134C190.134 26.876 189.684 26.369 189.375 26.007C189.066 25.646 188.630 25.161 188.406 24.929C188.071 24.582 188.000 24.411 188.000 23.947C188.000 23.578 188.070 23.329 188.203 23.224C188.314 23.135 188.870 22.598 189.437 22.031L190.468 21.000L192.991 21.000L195.514 21.000L198.046 23.544C199.438 24.943 200.630 26.111 200.695 26.138C200.881 26.216 201.820 27.509 202.109 28.085C202.253 28.373 202.430 28.644 202.501 28.688C202.572 28.732 202.797 29.098 203.000 29.500C203.203 29.902 203.432 30.271 203.509 30.318C203.586 30.366 203.803 30.749 203.993 31.171C204.182 31.593 204.427 32.013 204.539 32.105C204.650 32.197 204.859 32.591 205.004 32.980C205.149 33.369 205.376 33.803 205.507 33.943C205.639 34.084 205.860 34.530 205.999 34.935C206.138 35.339 206.341 35.768 206.449 35.888C206.557 36.007 206.768 36.461 206.917 36.896C207.149 37.575 207.234 37.693 207.518 37.726C207.922 37.773 208.198 37.419 208.838 36.033C209.084 35.499 209.411 34.894 209.565 34.688C209.718 34.481 209.914 34.087 210.000 33.812C210.086 33.538 210.296 33.125 210.468 32.895C210.639 32.666 210.881 32.201 211.004 31.863C211.128 31.525 211.373 31.078 211.549 30.869C211.725 30.660 211.928 30.269 212.000 30.000C212.072 29.731 212.261 29.354 212.420 29.162C212.578 28.970 212.812 28.633 212.939 28.413C213.096 28.143 213.402 27.910 213.882 27.694C214.569 27.386 214.681 27.375 217.113 27.375C219.724 27.375 220.215 27.454 220.777 27.962C221.143 28.293 221.073 29.105 220.632 29.639C220.430 29.885 220.130 30.390 219.965 30.762C219.800 31.133 219.574 31.513 219.462 31.605C219.351 31.697 219.142 32.086 218.999 32.469C218.856 32.852 218.605 33.323 218.443 33.517C218.280 33.710 218.077 34.081 217.991 34.341C217.905 34.600 217.655 35.076 217.434 35.397C217.212 35.719 216.994 36.134 216.947 36.319C216.901 36.504 216.703 36.859 216.508 37.109C216.312 37.358 216.087 37.770 216.007 38.023C215.927 38.276 215.699 38.687 215.501 38.937C215.302 39.186 215.050 39.662 214.940 39.993C214.830 40.324 214.635 40.691 214.506 40.807C214.378 40.923 214.201 41.197 214.113 41.415C214.026 41.634 213.824 42.008 213.664 42.248C213.279 42.828 213.300 43.247 213.750 43.958C213.956 44.283 214.125 44.597 214.125 44.657C214.125 44.716 214.288 44.972 214.486 45.226C214.685 45.480 214.913 45.895 214.993 46.148C215.073 46.401 215.304 46.816 215.507 47.071C215.709 47.325 215.931 47.744 216.000 48.000C216.069 48.256 216.294 48.678 216.500 48.937C216.706 49.197 216.932 49.624 217.003 49.886C217.074 50.149 217.270 50.528 217.438 50.728C217.607 50.929 217.858 51.356 217.996 51.677C218.133 51.999 218.380 52.442 218.543 52.662C218.707 52.882 218.900 53.239 218.972 53.456C219.044 53.672 219.305 54.142 219.551 54.501C219.798 54.860 220.000 55.220 220.000 55.302C220.000 55.384 220.180 55.729 220.400 56.069C220.620 56.409 220.930 56.941 221.090 57.250C221.249 57.559 221.471 57.957 221.584 58.134C221.880 58.599 221.719 59.059 221.121 59.455C220.673 59.751 220.456 59.796 219.029 59.879C218.154 59.931 216.566 59.935 215.500 59.889C213.691 59.811 213.524 59.782 212.987 59.464C212.277 59.043 212.072 58.814 211.886 58.234C211.806 57.984 211.633 57.682 211.500 57.563C211.368 57.443 211.173 57.082 211.065 56.759C210.958 56.436 210.675 55.868 210.435 55.497C210.196 55.125 210.000 54.727 210.000 54.612C210.000 54.497 209.812 54.130 209.582 53.795C209.352 53.461 209.090 52.962 209.000 52.688C208.910 52.413 208.655 51.924 208.434 51.603C208.212 51.281 207.994 50.868 207.948 50.685C207.802 50.105 207.100 48.983 206.795 48.844C206.415 48.671 206.049 48.979 205.877 49.617C205.810 49.866 205.615 50.259 205.443 50.492C205.272 50.725 205.065 51.117 204.983 51.364C204.902 51.611 204.655 52.076 204.434 52.397C204.212 52.719 203.994 53.131 203.948 53.314C203.903 53.496 203.670 53.928 203.433 54.274C203.195 54.620 203.000 55.004 203.000 55.126C203.000 55.249 202.804 55.641 202.565 55.996C202.326 56.352 202.071 56.861 201.999 57.128C201.927 57.395 201.742 57.771 201.586 57.963C201.431 58.155 201.147 58.557 200.956 58.855C200.408 59.706 199.970 59.834 197.375 59.905C196.172 59.939 194.785 59.928 194.293 59.882Z" fill="#9F1A1C"/><g mask="url(#nfxSw)"><path class="a sw" d="M196.000 25.500C193.589 23.041 193.557 23.014 193.023 23.007C192.504 23.000 192.437 23.046 191.312 24.179C190.667 24.827 190.051 25.530 189.942 25.741C189.693 26.222 189.327 26.239 189.041 25.781C188.715 25.260 187.035 23.430 185.673 22.113C185.005 21.466 184.284 20.760 184.073 20.544C183.607 20.068 180.451 17.309 179.375 16.438C178.951 16.094 178.363 15.616 178.067 15.375C177.772 15.134 177.266 14.741 176.942 14.500C176.619 14.259 176.148 13.888 175.896 13.676C175.460 13.307 174.455 12.614 173.547 12.054C173.316 11.912 173.000 11.681 172.845 11.540C172.513 11.239 170.778 10.082 169.504 9.312C169.277 9.175 168.848 8.882 168.552 8.662C168.256 8.442 167.800 8.153 167.538 8.019C167.276 7.885 166.762 7.573 166.394 7.326C166.026 7.078 165.654 6.875 165.567 6.875C165.480 6.875 165.259 6.757 165.076 6.613C164.893 6.469 164.345 6.146 163.858 5.895C161.928 4.898 161.525 4.677 161.176 4.425C160.976 4.281 160.620 4.098 160.384 4.018C160.148 3.938 159.698 3.711 159.384 3.513C159.070 3.315 158.588 3.082 158.312 2.995C158.037 2.907 157.616 2.707 157.375 2.550C157.134 2.393 156.656 2.197 156.312 2.114C155.344 1.881 155.067 1.691 154.514 0.880C154.231 0.466 154.000 0.099 154.000 0.064C154.000 0.029 154.251 0.000 154.557 0.000C154.976 0.000 155.187 0.073 155.410 0.296C155.646 0.532 156.009 0.645 157.197 0.853C159.743 1.299 160.772 1.494 161.938 1.748C162.556 1.882 163.421 2.053 163.859 2.126C164.298 2.200 164.809 2.339 164.995 2.435C165.182 2.532 166.076 2.782 166.981 2.991C167.887 3.200 168.838 3.478 169.095 3.609C169.352 3.739 169.900 3.915 170.312 4.000C170.725 4.085 171.325 4.287 171.645 4.449C171.966 4.611 172.627 4.853 173.114 4.989C173.601 5.124 174.211 5.348 174.469 5.488C174.727 5.628 175.301 5.861 175.745 6.006C176.189 6.151 176.695 6.368 176.870 6.488C177.045 6.607 177.469 6.806 177.812 6.929C178.156 7.053 178.649 7.288 178.906 7.454C179.164 7.619 179.665 7.868 180.019 8.007C180.372 8.147 180.804 8.373 180.977 8.509C181.151 8.646 181.547 8.870 181.858 9.007C182.169 9.145 182.596 9.386 182.806 9.543C183.016 9.700 183.372 9.902 183.598 9.993C183.823 10.084 184.217 10.325 184.473 10.529C184.728 10.733 185.134 11.009 185.375 11.143C185.616 11.277 186.150 11.637 186.562 11.943C186.975 12.249 187.622 12.706 188.000 12.959C188.378 13.212 188.744 13.485 188.812 13.565C188.881 13.646 189.134 13.843 189.375 14.004C189.815 14.298 190.168 14.579 191.306 15.540C192.288 16.370 195.704 19.813 196.971 21.250C198.810 23.337 199.171 23.779 199.867 24.800C200.313 25.453 201.090 26.478 201.465 26.907C201.931 27.440 201.952 27.530 201.679 27.804C201.521 27.962 201.184 27.999 199.960 27.993L198.438 27.986L196.000 25.500Z" fill="#9F1A1C"/></g><path class="a rl" d="M0.594 66.408L0.000 66.361L0.000 65.618L0.000 64.875L110.812 64.875C221.458 64.875 221.625 64.875 221.875 65.125C222.194 65.444 222.192 65.756 221.866 66.171L221.607 66.500L111.397 66.477C50.782 66.465 0.920 66.434 0.594 66.408Z" fill="#ABA2A5"/><path class="a t0" d="M4.808 88.006C4.213 87.765 4.217 87.806 4.241 82.514L4.264 77.529L3.913 77.251C3.597 77.000 3.464 76.979 2.572 77.038C1.773 77.092 1.430 77.054 0.791 76.840L0.000 76.576L0.000 75.880L0.000 75.184L0.656 75.022C1.135 74.903 2.575 74.859 5.986 74.858C11.221 74.856 10.982 74.814 11.089 75.768C11.136 76.194 11.092 76.385 10.886 76.646C10.628 76.973 10.588 76.981 8.988 77.021C7.526 77.058 7.335 77.089 7.171 77.312C7.016 77.524 6.991 78.349 7.009 82.618L7.031 87.673L6.751 87.899C6.453 88.141 5.298 88.204 4.808 88.006Z" fill="#565558"/><path class="a t1" d="M19.925 87.947C19.712 87.854 19.503 87.689 19.462 87.581C19.420 87.472 19.385 84.690 19.384 81.398L19.381 75.413L19.686 75.127L19.990 74.841L24.354 74.845C28.862 74.849 29.107 74.875 29.372 75.370C29.706 75.993 29.275 76.987 28.662 77.007C28.538 77.011 27.131 77.025 25.535 77.039C22.697 77.062 22.626 77.069 22.347 77.347C22.105 77.590 22.062 77.763 22.062 78.514C22.062 79.326 22.091 79.421 22.413 79.698C22.761 79.998 22.784 80.000 25.575 80.000L28.386 80.000L28.693 80.307C29.095 80.709 29.126 81.624 28.750 82.000C28.515 82.235 28.333 82.250 25.639 82.250C22.404 82.250 22.335 82.269 22.122 83.188C21.946 83.944 22.105 85.255 22.413 85.594C22.665 85.871 22.713 85.875 25.778 85.875C29.263 85.875 29.497 85.922 29.743 86.667C29.938 87.256 29.740 87.715 29.192 87.944C28.580 88.199 20.511 88.202 19.925 87.947Z" fill="#565558"/><path class="a t2" d="M42.240 88.016C41.306 87.775 40.884 87.497 39.865 86.452C39.162 85.731 39.011 85.451 38.348 83.625C38.130 83.026 38.105 82.720 38.157 81.250C38.211 79.721 38.253 79.473 38.608 78.604C38.824 78.077 39.000 77.597 39.000 77.537C39.000 77.421 39.809 76.441 40.125 76.175C41.045 75.398 41.563 75.122 42.660 74.823C43.313 74.645 44.073 74.500 44.351 74.500C44.906 74.500 46.915 74.946 47.312 75.158C48.317 75.694 49.828 77.549 49.673 78.057C49.542 78.483 49.383 78.605 48.689 78.807C47.825 79.058 47.418 79.051 47.189 78.781C45.910 77.274 45.314 76.874 44.348 76.876C43.088 76.877 42.231 77.450 41.417 78.835C41.068 79.429 41.062 79.467 41.062 81.438C41.062 83.740 41.123 83.943 42.157 85.074C42.655 85.618 42.911 85.790 43.472 85.953C44.541 86.264 45.267 86.059 46.089 85.215C46.438 84.856 46.843 84.325 46.988 84.035C47.392 83.225 47.638 83.153 48.550 83.575C48.969 83.769 49.411 84.009 49.531 84.108C49.770 84.305 49.828 84.937 49.620 85.065C49.549 85.110 49.320 85.449 49.111 85.819C48.902 86.189 48.394 86.784 47.983 87.140C47.343 87.694 47.095 87.821 46.274 88.018C45.076 88.305 43.356 88.304 42.240 88.016Z" fill="#565558"/><path class="a t3" d="M59.141 87.804L58.868 87.458L58.903 81.343L58.938 75.228L59.233 74.989C59.562 74.722 60.187 74.682 60.903 74.881C61.686 75.098 61.734 75.263 61.660 77.479L61.595 79.438L61.925 79.743C62.250 80.044 62.282 80.047 64.346 80.017C67.122 79.977 66.951 80.150 66.895 77.439L66.852 75.386L67.171 75.068C67.400 74.839 67.621 74.750 67.963 74.751C68.575 74.752 69.308 74.957 69.493 75.179C69.598 75.305 69.637 76.987 69.636 81.333C69.635 84.622 69.633 87.384 69.630 87.471C69.620 87.787 68.839 88.124 68.116 88.125C67.539 88.125 67.369 88.073 67.134 87.822C66.856 87.526 66.851 87.471 66.894 85.187L66.938 82.854L66.587 82.552C66.248 82.261 66.168 82.250 64.296 82.250L62.356 82.250L61.973 82.633L61.590 83.016L61.654 85.251L61.718 87.487L61.415 87.771C61.177 87.995 60.933 88.065 60.263 88.103C59.457 88.149 59.400 88.133 59.141 87.804Z" fill="#565558"/><path class="a t4" d="M79.380 87.904L79.107 87.683L79.105 81.451C79.103 75.939 79.125 75.196 79.300 75.022C79.569 74.753 80.941 74.671 81.458 74.894C81.933 75.097 82.637 75.955 83.047 76.828C83.212 77.180 83.411 77.507 83.488 77.555C83.566 77.603 83.776 77.934 83.954 78.290C84.132 78.646 84.381 79.051 84.508 79.189C84.634 79.328 84.831 79.665 84.944 79.939C85.057 80.213 85.284 80.616 85.448 80.833C85.612 81.051 85.847 81.500 85.970 81.831C86.288 82.686 86.937 82.960 87.252 82.372C87.328 82.230 87.328 81.814 87.252 81.231C87.186 80.726 87.131 79.208 87.129 77.858C87.124 75.000 87.159 74.897 88.154 74.785C88.869 74.704 89.306 74.806 89.628 75.128C89.867 75.367 89.875 75.568 89.875 81.481C89.875 88.637 90.010 88.034 88.394 88.102C87.490 88.141 87.409 88.122 86.915 87.755C86.608 87.527 86.278 87.124 86.113 86.777C85.959 86.453 85.680 85.991 85.493 85.750C85.307 85.509 85.063 85.095 84.952 84.829C84.842 84.564 84.582 84.154 84.375 83.919C84.169 83.684 84.000 83.428 84.000 83.350C84.000 83.273 83.817 82.926 83.594 82.580C83.370 82.235 83.102 81.723 82.997 81.445C82.863 81.087 82.670 80.864 82.344 80.688C81.907 80.453 81.871 80.451 81.667 80.655C81.472 80.849 81.466 80.975 81.600 81.966C81.716 82.828 81.809 86.029 81.758 87.408C81.736 88.018 79.974 88.385 79.380 87.904Z" fill="#565558"/><path class="a t5" d="M103.040 88.018C101.559 87.642 100.656 86.930 99.750 85.426C99.009 84.194 98.880 83.613 98.880 81.500C98.880 79.508 99.042 78.652 99.592 77.729C100.077 76.916 101.449 75.470 102.000 75.191C102.458 74.959 104.666 74.500 105.325 74.500C106.099 74.500 108.380 75.091 108.688 75.371C108.825 75.496 109.112 75.703 109.325 75.831C109.712 76.062 111.000 77.562 111.000 77.781C111.000 77.844 111.178 78.327 111.396 78.854C111.770 79.757 111.793 79.906 111.800 81.438C111.807 82.991 111.789 83.105 111.404 84.041C111.182 84.579 111.000 85.095 111.000 85.187C111.000 85.483 109.662 86.934 108.983 87.374C108.068 87.967 107.306 88.147 105.500 88.200C104.284 88.236 103.739 88.195 103.040 88.018ZM106.036 86.009C106.802 85.831 107.855 85.025 108.232 84.328C108.414 83.991 108.626 83.607 108.703 83.474C108.915 83.112 109.018 81.436 108.894 80.373C108.806 79.623 108.695 79.293 108.342 78.743C107.285 77.089 106.147 76.605 104.268 77.008C103.766 77.115 103.496 77.287 102.842 77.914C102.042 78.681 102.033 78.697 101.812 79.774C101.554 81.032 101.604 82.522 101.942 83.625C102.103 84.152 102.303 84.454 102.795 84.915C103.666 85.732 103.878 85.865 104.515 85.990C105.253 86.135 105.481 86.138 106.036 86.009Z" fill="#565558"/><path class="a t6" d="M121.094 87.929C120.905 87.826 120.748 87.673 120.745 87.590C120.699 86.314 120.754 75.559 120.807 75.392C120.983 74.836 122.460 74.673 123.058 75.144L123.400 75.413L123.357 80.343L123.315 85.274L123.664 85.574C124.011 85.873 124.037 85.875 126.819 85.875C129.458 85.875 129.640 85.890 129.875 86.125C130.057 86.307 130.125 86.542 130.125 86.991C130.125 87.507 130.072 87.649 129.796 87.866C129.478 88.116 129.328 88.125 125.452 88.120C122.137 88.116 121.378 88.082 121.094 87.929Z" fill="#565558"/><path class="a t7" d="M142.583 88.051C141.977 87.930 141.504 87.732 140.961 87.369C140.151 86.828 139.199 85.815 139.057 85.343C139.010 85.189 138.796 84.669 138.581 84.188C138.203 83.342 138.189 83.253 138.189 81.562C138.189 79.834 138.195 79.797 138.670 78.553C139.079 77.481 139.258 77.183 139.872 76.553C141.071 75.323 141.344 75.159 142.765 74.815C143.479 74.642 144.346 74.500 144.693 74.500C145.687 74.500 147.714 75.078 148.306 75.531C149.200 76.214 149.889 76.924 150.152 77.434C150.293 77.707 150.513 78.072 150.641 78.246C151.210 79.021 151.294 83.291 150.761 84.385C150.008 85.931 149.573 86.494 148.529 87.271C147.309 88.179 144.850 88.502 142.583 88.051ZM145.437 85.979C146.073 85.851 146.272 85.732 147.004 85.041C147.926 84.172 148.045 83.905 148.244 82.261C148.367 81.253 148.143 79.249 147.846 78.701C147.532 78.118 146.314 77.141 145.738 77.008C143.910 76.587 142.783 77.055 141.640 78.710L141.062 79.546L141.062 81.429L141.062 83.312L141.602 84.125C142.192 85.015 143.027 85.706 143.809 85.951C144.454 86.153 144.561 86.155 145.437 85.979Z" fill="#565558"/><path class="a t8" d="M163.961 87.992C161.334 87.346 159.599 84.739 159.598 81.438C159.598 80.072 160.022 78.219 160.468 77.643C160.657 77.398 160.926 77.012 161.065 76.786C161.205 76.561 161.494 76.249 161.708 76.094C161.922 75.939 162.303 75.649 162.555 75.449C163.067 75.042 165.104 74.507 166.158 74.503C166.769 74.500 168.835 74.904 169.353 75.128C169.834 75.335 170.729 76.145 171.255 76.848C171.805 77.583 171.887 78.087 171.513 78.426C171.297 78.621 170.166 78.995 169.779 78.999C169.691 78.999 169.191 78.578 168.667 78.063C167.561 76.974 167.154 76.811 165.793 76.913C164.770 76.989 164.557 77.081 163.673 77.833C163.134 78.291 162.976 78.532 162.675 79.345C162.144 80.782 162.163 82.051 162.736 83.530C163.112 84.499 163.240 84.689 163.861 85.201C164.247 85.519 164.703 85.834 164.875 85.901C165.394 86.104 166.880 86.068 167.566 85.836C168.291 85.591 169.092 84.977 169.259 84.540C169.385 84.206 169.152 83.486 168.857 83.298C168.764 83.239 168.229 83.190 167.669 83.189C166.531 83.187 166.211 83.023 166.081 82.375C165.993 81.933 166.203 81.284 166.482 81.136C166.742 80.998 171.219 80.916 171.583 81.042C172.000 81.186 172.073 81.638 172.052 83.966C172.036 85.664 171.992 86.181 171.841 86.411C171.484 86.957 169.910 87.755 168.688 88.011C167.207 88.321 165.269 88.313 163.961 87.992Z" fill="#565558"/><path class="a t9" d="M181.539 87.976C181.388 87.903 181.229 87.752 181.186 87.640C181.143 87.529 181.114 84.709 181.120 81.375C181.135 74.252 181.012 74.812 182.562 74.812C183.258 74.812 183.543 74.864 183.697 75.018C183.882 75.204 183.903 75.842 183.910 81.444L183.917 87.664L183.632 87.894C183.309 88.156 182.016 88.206 181.539 87.976Z" fill="#565558"/><path class="a t10" d="M193.750 88.036C193.647 87.998 193.464 87.882 193.344 87.777C193.141 87.600 193.125 87.140 193.125 81.481C193.125 75.542 193.132 75.368 193.375 75.125C193.678 74.822 193.185 74.848 198.375 74.856C202.640 74.862 202.690 74.865 202.906 75.132C203.046 75.305 203.125 75.617 203.125 75.994C203.125 77.005 203.143 77.000 199.578 77.000L196.489 77.000L196.182 77.307C195.915 77.573 195.875 77.727 195.875 78.477C195.875 79.162 195.929 79.410 196.134 79.671L196.393 80.000L199.201 80.000C202.322 80.000 202.495 80.039 202.747 80.805C202.911 81.301 202.765 81.763 202.352 82.053C202.104 82.226 201.658 82.254 199.273 82.245C197.292 82.237 196.431 82.276 196.305 82.382C196.002 82.632 195.844 83.420 195.894 84.419C195.972 85.956 195.833 85.901 199.586 85.882C202.568 85.867 202.719 85.877 203.035 86.126C203.416 86.426 203.589 87.100 203.383 87.486C203.056 88.097 202.817 88.126 198.225 88.115C195.867 88.110 193.853 88.074 193.750 88.036Z" fill="#565558"/><path class="a t11" d="M215.171 88.071C213.989 87.802 213.562 87.524 212.714 86.472C212.147 85.768 211.875 85.157 211.875 84.586C211.875 84.087 212.129 83.825 212.781 83.647C213.713 83.394 214.439 83.818 215.137 85.019C215.663 85.926 217.061 86.370 218.205 85.995C218.796 85.802 219.736 85.053 219.887 84.656C220.028 84.284 219.762 83.610 219.363 83.331C219.054 83.114 216.994 82.407 215.562 82.026C214.333 81.699 213.397 81.060 212.740 80.099C212.246 79.376 212.199 79.237 212.155 78.375C212.106 77.440 212.107 77.436 212.647 76.674C213.507 75.460 213.954 75.143 215.282 74.802C215.917 74.639 216.691 74.505 217.000 74.504C217.704 74.504 219.754 74.930 220.216 75.173C220.700 75.428 221.709 76.492 221.868 76.914C222.109 77.557 222.032 78.229 221.678 78.584C221.396 78.865 221.284 78.897 220.802 78.830C219.941 78.712 219.291 78.320 218.994 77.739C218.672 77.107 218.095 76.837 217.062 76.834C215.706 76.829 214.875 77.328 214.875 78.148C214.875 78.565 215.362 79.125 215.726 79.125C215.856 79.125 216.238 79.271 216.574 79.450C216.910 79.629 217.636 79.859 218.187 79.962C219.261 80.164 220.871 80.836 221.354 81.286C221.517 81.438 221.815 81.888 222.016 82.286C222.218 82.683 222.522 83.129 222.691 83.277C222.945 83.497 223.000 83.660 223.000 84.187C223.000 84.733 222.946 84.880 222.633 85.180C222.431 85.373 222.148 85.823 222.003 86.180C221.698 86.932 220.825 87.670 219.884 87.970C219.067 88.231 216.150 88.294 215.171 88.071Z" fill="#565558"/></svg>